<svg id="Capa_1" data-name="Capa 1" xmlns="http://www.w3.org/2000/svg" viewBox="0 0 48.22 48.22"><defs><style>.cls-1{fill:#6e6e6e;}.cls-2{fill:#fff;}</style></defs><title>logo_instaLogo</title><circle class="cls-1" cx="24.11" cy="24.11" r="24.11"/><path class="cls-2" d="M24.11,11.67c4.05,0,4.53,0,6.13.08a8.28,8.28,0,0,1,2.82.53,4.95,4.95,0,0,1,2.88,2.88A8.34,8.34,0,0,1,36.47,18c.07,1.6.09,2.08.09,6.13s0,4.53-.09,6.13a8.28,8.28,0,0,1-.53,2.82,4.95,4.95,0,0,1-2.88,2.88,8.28,8.28,0,0,1-2.82.53c-1.6.07-2.08.09-6.13.09s-4.53,0-6.13-.09a8.34,8.34,0,0,1-2.82-.53,4.95,4.95,0,0,1-2.88-2.88,8.26,8.26,0,0,1-.53-2.81c-.07-1.61-.08-2.09-.08-6.14s0-4.53.08-6.13a8.34,8.34,0,0,1,.53-2.82,4.95,4.95,0,0,1,2.88-2.88A8.34,8.34,0,0,1,18,11.75c1.6-.07,2.08-.08,6.13-.08m0-2.74c-4.12,0-4.64,0-6.26.09a10.89,10.89,0,0,0-3.68.71,7.75,7.75,0,0,0-4.44,4.44A10.89,10.89,0,0,0,9,17.85C9,19.47,8.93,20,8.93,24.11s0,4.64.09,6.26a10.83,10.83,0,0,0,.71,3.68,7.75,7.75,0,0,0,4.44,4.44,10.89,10.89,0,0,0,3.68.71c1.62.07,2.14.09,6.26.09s4.64,0,6.26-.09a10.83,10.83,0,0,0,3.68-.71,7.75,7.75,0,0,0,4.44-4.44,10.83,10.83,0,0,0,.71-3.68c.07-1.62.09-2.14.09-6.26s0-4.64-.09-6.26a10.89,10.89,0,0,0-.71-3.68,7.75,7.75,0,0,0-4.44-4.44A10.83,10.83,0,0,0,30.37,9c-1.62-.07-2.14-.09-6.26-.09Z"/><path class="cls-2" d="M24.11,16.32a7.8,7.8,0,1,0,7.8,7.79A7.79,7.79,0,0,0,24.11,16.32Zm0,12.85a5.06,5.06,0,1,1,5.06-5.06A5.06,5.06,0,0,1,24.11,29.17Z"/><circle class="cls-2" cx="32.21" cy="16.01" r="1.82"/></svg>