<svg id="Capa_1" data-name="Capa 1" xmlns="http://www.w3.org/2000/svg" viewBox="0 0 48.22 48.22"><defs><style>.cls-1{fill:#6e6e6e;}.cls-2{fill:#fff;fill-rule:evenodd;}</style></defs><title>logo_whatappLogo</title><circle class="cls-1" cx="24.11" cy="24.11" r="24.11"/><g id="WA_Logo" data-name="WA Logo"><path class="cls-2" d="M35.71,12.81A15.29,15.29,0,0,0,11.64,31.26L9.47,39.18l8.1-2.12a15.39,15.39,0,0,0,7.31,1.86h0A15.31,15.31,0,0,0,40.18,23.63,15.14,15.14,0,0,0,35.71,12.81ZM24.89,36.33h0a12.69,12.69,0,0,1-6.47-1.77L18,34.29l-4.81,1.26,1.28-4.69-.3-.48a12.71,12.71,0,1,1,10.77,5.95Zm7-9.51c-.38-.19-2.26-1.12-2.61-1.25s-.6-.19-.86.19a19.14,19.14,0,0,1-1.21,1.5c-.22.26-.44.29-.83.1a10.53,10.53,0,0,1-3.07-1.9,11.66,11.66,0,0,1-2.13-2.64c-.22-.39,0-.59.17-.78s.38-.45.57-.67a2.68,2.68,0,0,0,.39-.64.71.71,0,0,0,0-.67c-.09-.19-.85-2.07-1.17-2.84s-.63-.64-.86-.65l-.74,0a1.41,1.41,0,0,0-1,.48,4.25,4.25,0,0,0-1.34,3.19,7.41,7.41,0,0,0,1.56,4,17,17,0,0,0,6.53,5.77,20.57,20.57,0,0,0,2.18.8,5.21,5.21,0,0,0,2.4.16,3.94,3.94,0,0,0,2.58-1.82,3.13,3.13,0,0,0,.22-1.82C32.5,27.1,32.24,27,31.86,26.82Z"/></g></svg>