<svg id="Capa_1" data-name="Capa 1" xmlns="http://www.w3.org/2000/svg" viewBox="0 0 48.22 48.22"><defs><style>.cls-1{fill:#6e6e6e;}.cls-2{fill:#fff;}</style></defs><title>logo_FaceLogo</title><path class="cls-1" d="M48.22,24.11A24.11,24.11,0,1,0,20.34,47.93V31.08H14.22v-7h6.12V18.8c0-6,3.6-9.38,9.11-9.38a37.17,37.17,0,0,1,5.4.47v5.93h-3c-3,0-3.93,1.86-3.93,3.77v4.52h6.68l-1.06,7H27.88V47.93A24.13,24.13,0,0,0,48.22,24.11Z"/><path class="cls-2" d="M33.5,31.08l1.06-7H27.88V19.59c0-1.91.93-3.77,3.93-3.77h3V9.89a37.17,37.17,0,0,0-5.4-.47c-5.51,0-9.11,3.34-9.11,9.38v5.31H14.22v7h6.12V47.93a24.65,24.65,0,0,0,7.54,0V31.08Z"/></svg>